<svg width="48" height="48" viewBox="0 0 48 48" fill="none" xmlns="http://www.w3.org/2000/svg">
<rect width="48" height="48" rx="24" fill="#000000"/>
<path d="M39.33 16.6869C39.33 17.2256 39.1413 17.6835 38.764 18.0606L21.3809 35.4343C21.0036 35.8114 20.5455 36 20.0065 36C19.4675 36 19.0093 35.8114 18.632 35.4343L8.56596 25.3737C8.18865 24.9966 8 24.5387 8 24C8 23.4613 8.18865 23.0034 8.56596 22.6263L11.3149 19.8788C11.6922 19.5017 12.1504 19.3131 12.6894 19.3131C13.2284 19.3131 13.6866 19.5017 14.0639 19.8788L20.0065 25.8384L33.2661 12.5657C33.6434 12.1886 34.1016 12 34.6406 12C35.1796 12 35.6378 12.1886 36.0151 12.5657L38.764 15.3131C39.1413 15.6902 39.33 16.1481 39.33 16.6869Z" fill="#EAEAEA"/>
</svg>
