<svg width="48" height="48" viewBox="0 0 48 48" fill="none" xmlns="http://www.w3.org/2000/svg">
<rect width="48" height="48" rx="12" fill="black"/>
<path fill-rule="evenodd" clip-rule="evenodd" d="M10 18.2978C10.0007 15.7483 10.7449 13.2528 12.1442 11.1083C13.5435 8.96377 15.5388 7.26065 17.8926 6.2017C20.2464 5.14276 22.8594 4.7726 25.4206 5.13531C27.9819 5.49802 30.3833 6.57831 32.3391 8.24756C34.2949 9.91681 35.7226 12.1047 36.4522 14.5507C37.1818 16.9967 37.1826 19.5977 36.4545 22.0442C35.7263 24.4906 34.3 26.6793 32.3452 28.3497C30.3904 30.0201 27.9896 31.1018 25.4286 31.466V41.0998C25.4286 41.6038 25.2254 42.0871 24.8637 42.4435C24.502 42.7998 24.0115 43 23.5 43C22.9885 43 22.498 42.7998 22.1363 42.4435C21.7746 42.0871 21.5714 41.6038 21.5714 41.0998V31.466C18.3579 31.009 15.4191 29.4261 13.2938 27.0076C11.1686 24.589 9.99917 21.4969 10 18.2978ZM21.4557 16.2836C21.9977 15.7489 22.733 15.4482 23.5 15.4475C24.0115 15.4475 24.502 15.2473 24.8637 14.891C25.2254 14.5346 25.4286 14.0513 25.4286 13.5474C25.4286 13.0434 25.2254 12.5601 24.8637 12.2037C24.502 11.8474 24.0115 11.6472 23.5 11.6472C21.7098 11.6472 19.9929 12.3479 18.727 13.5951C17.4612 14.8423 16.75 16.5339 16.75 18.2978C16.75 18.8017 16.9532 19.2851 17.3149 19.6414C17.6765 19.9978 18.1671 20.198 18.6786 20.198C19.1901 20.198 19.6806 19.9978 20.0423 19.6414C20.404 19.2851 20.6071 18.8017 20.6071 18.2978C20.6071 17.5415 20.9119 16.8157 21.4557 16.2836Z" fill="#9B9B9B"/>
</svg>
